<svg xmlns="http://www.w3.org/2000/svg" width="189.11" height="80" viewBox="0 0 189.11 80"><defs><style>.a{fill:#fff;}</style></defs><g transform="translate(-136.996 -692.739)"><path class="a" d="M210.4,739.247l-10.727-6.732v-.027l-.558-.336-3.38-2.123-11.648,11.034-13.52-4.106-5.921,6.173-8.353-2.4a7.954,7.954,0,0,1-.307-.866,22.129,22.129,0,0,1,0-14.218,23.539,23.539,0,0,1,1.117-2.738,22.129,22.129,0,0,1,10.057-10.027,19.129,19.129,0,0,1,2.709-1.118,22.129,22.129,0,0,1,14.218,0,21.311,21.311,0,0,1,2.71,1.09,22.386,22.386,0,0,1,8.686,7.681l9.721-6.787.028-.028,2.71-5.447a1.191,1.191,0,0,0-.2-1.341l-4.972-4.944a1.146,1.146,0,0,0-1.313-.224L195.99,704.5a33.883,33.883,0,0,0-12.485-5.2l-1.928-5.782a1.177,1.177,0,0,0-1.089-.782h-7.012a1.206,1.206,0,0,0-1.089.782l-1.927,5.81a33.956,33.956,0,0,0-12.514,5.168l-5.447-2.738a1.146,1.146,0,0,0-1.313.224l-4.972,4.944a1.189,1.189,0,0,0-.2,1.341l2.71,5.447a33.309,33.309,0,0,0-5.168,12.513l-5.782,1.928a1.115,1.115,0,0,0-.782,1.089v6.984a1.176,1.176,0,0,0,.782,1.117l5.782,1.927a33.5,33.5,0,0,0,5.168,12.514l-2.71,5.447a1.145,1.145,0,0,0,.2,1.313l4.972,4.944a1.1,1.1,0,0,0,1.313.224l5.447-2.738a33.489,33.489,0,0,0,12.514,5.168l1.927,5.81a1.165,1.165,0,0,0,1.089.782h7.012a1.14,1.14,0,0,0,1.089-.782l1.928-5.782a34.025,34.025,0,0,0,12.514-5.2l5.446,2.738a1.1,1.1,0,0,0,1.313-.224l4.972-4.944a1.147,1.147,0,0,0,.2-1.313l-2.738-5.475a33.88,33.88,0,0,0,5.2-12.486Zm-12.43.615a21.283,21.283,0,0,1-1.118,2.709A22.187,22.187,0,0,1,186.8,752.627a19.245,19.245,0,0,1-2.71,1.118,22.128,22.128,0,0,1-14.218,0,19.135,19.135,0,0,1-2.709-1.118,22.22,22.22,0,0,1-9.218-8.519l5.95,1.7,1.619.448,1.145-1.2,4.749-4.916,11.872,3.6,1.564.475,1.173-1.117,10.084-9.553,2.877,1.788A22.181,22.181,0,0,1,197.974,739.862Z"/><path class="a" d="M162.778,728.015H167V737.4l-2.346,2.458-1.872-.53Zm7.989-5.112h4.217v12.123l-4.217-1.285Zm20.224,0v8.352l-4.246,4.023V722.9Zm-12.235-2.374H183v16.927l-4.245-1.285Z"/><path class="a" d="M226.516,727.223h-7.457V711.215h7.206c3.259,0,5.2,1.619,5.2,4.15a3.632,3.632,0,0,1-2.714,3.649,3.88,3.88,0,0,1,3.078,3.854C231.828,725.513,229.89,727.223,226.516,727.223Zm-1-12.884h-2.555v3.353h2.555c1.276,0,1.983-.57,1.983-1.665S226.788,714.339,225.512,714.339Zm.274,6.2h-2.829v3.535h2.874c1.3,0,2.053-.593,2.053-1.733S227.086,720.541,225.786,720.541Zm8.239-9.326h3.9v9.577c0,1.893.935,2.987,2.782,2.987s2.828-1.094,2.828-2.987v-9.577h3.9v9.555c0,4.424-3.1,6.613-6.795,6.613-3.717,0-6.614-2.189-6.614-6.613Zm21.947,16.168c-3.442,0-6.133-1.711-6.248-4.949h4.15a1.837,1.837,0,0,0,1.985,1.825c1.139,0,1.868-.57,1.868-1.506,0-2.963-8-1.368-7.957-7.045,0-3.034,2.485-4.721,5.838-4.721,3.489,0,5.837,1.734,6,4.789h-4.219a1.731,1.731,0,0,0-1.848-1.664,1.417,1.417,0,0,0-1.64,1.459c0,2.781,7.912,1.528,7.912,6.887C261.81,725.149,259.712,727.383,255.972,727.383Zm8.241-16.168h3.9v16.008h-3.9Zm21.051,0v16.008h-3.9l-6.522-9.873v9.873h-3.9V711.215h3.9l6.522,9.92v-9.92Zm12.643,3.124H292v3.238h5.222v3.011H292V724.1h5.907v3.123H288.1V711.215h9.805Zm8.329,13.044c-3.442,0-6.133-1.711-6.248-4.949h4.151a1.835,1.835,0,0,0,1.984,1.825c1.139,0,1.869-.57,1.869-1.506,0-2.963-8-1.368-7.957-7.045,0-3.034,2.485-4.721,5.837-4.721,3.489,0,5.838,1.734,6,4.789h-4.218a1.732,1.732,0,0,0-1.848-1.664,1.418,1.418,0,0,0-1.641,1.459c0,2.781,7.912,1.528,7.912,6.887C312.074,725.149,309.976,727.383,306.236,727.383Zm14.032,0c-3.442,0-6.133-1.711-6.248-4.949h4.151a1.836,1.836,0,0,0,1.984,1.825c1.139,0,1.869-.57,1.869-1.506,0-2.963-8-1.368-7.957-7.045,0-3.034,2.485-4.721,5.837-4.721,3.489,0,5.838,1.734,6,4.789h-4.218a1.732,1.732,0,0,0-1.848-1.664,1.418,1.418,0,0,0-1.641,1.459c0,2.781,7.912,1.528,7.912,6.887C326.106,725.149,324.008,727.383,320.268,727.383Z"/><path class="a" d="M229.966,739.513H223.4v3.6H229.2v3.348H223.4v3.907h6.571v3.474H219.059V736.037h10.907Zm10.1,8.877-3.2,5.454h-4.92l5.708-9.056-5.835-8.751h5.047l3.578,5.378,3.145-5.378h4.92l-5.656,8.98,5.885,8.827H243.7Zm17.893-.938h-2.69v6.392h-4.336V736.037h7.026c4.362,0,6.544,2.461,6.544,5.733C264.506,744.712,262.5,747.452,257.962,747.452Zm-.33-3.45c1.725,0,2.46-.862,2.46-2.232s-.735-2.231-2.46-2.231h-2.36V744Zm20.049-4.489H271.11v3.6h5.809v3.348H271.11v3.907h6.571v3.474H266.774V736.037h10.907Zm18.752-3.476v17.807H292.1l-7.256-10.983v10.983H280.5V736.037h4.336l7.256,11.034V736.037Zm9.6,17.984c-3.829,0-6.822-1.9-6.95-5.5H303.7a2.042,2.042,0,0,0,2.207,2.03c1.267,0,2.079-.634,2.079-1.675,0-3.3-8.9-1.522-8.851-7.838,0-3.374,2.764-5.25,6.493-5.25,3.881,0,6.494,1.928,6.671,5.326h-4.692a1.927,1.927,0,0,0-2.056-1.851,1.578,1.578,0,0,0-1.825,1.624c0,3.093,8.8,1.7,8.8,7.66C312.526,751.536,310.192,754.021,306.032,754.021Zm20.074-14.508h-6.571v3.6h5.809v3.348h-5.809v3.907h6.571v3.474H315.2V736.037h10.907Z"/></g></svg>