<svg xmlns="http://www.w3.org/2000/svg" width="17.345" height="22" viewBox="0 0 17.345 22"><defs><style>.a{fill:#969699;}</style></defs><path class="a" d="M16.7,0H.647A.647.647,0,0,0,0,.647V21.353A.647.647,0,0,0,.647,22h9.747a.65.65,0,0,0,.459-.19l6.3-6.322a.648.648,0,0,0,.188-.457V.647A.647.647,0,0,0,16.7,0M10.61,20.221V15.246h4.959Zm-9.316.485V1.294H16.051V14.763L16,14.815h-5.6a.217.217,0,0,0-.216.216v5.622l-.052.053Z"/><path class="a" d="M11.616,9.179H6.22V8.747h5.4Zm-8.1-1.693A1.475,1.475,0,1,0,4.987,8.963,1.476,1.476,0,0,0,3.511,7.486m8.1-3.551H6.22v.431h5.4Zm-8.1-1.258A1.475,1.475,0,1,0,4.987,4.151,1.475,1.475,0,0,0,3.511,2.677" transform="translate(1.477 1.942)"/></svg>