<svg xmlns="http://www.w3.org/2000/svg" xmlns:xlink="http://www.w3.org/1999/xlink" width="50" height="50" viewBox="0 0 50 50"><defs><style>.a{fill:#31b5a6;}.b{clip-path:url(#a);}</style><clipPath id="a"><rect class="a" width="50" height="50"/></clipPath></defs><g class="b"><path class="a" d="M27.608,50h-5.22a3.979,3.979,0,0,1-3.953-4V44.239a17.931,17.931,0,0,1-2.384-.976L14.8,44.518a3.985,3.985,0,0,1-5.616,0l-3.706-3.7a3.979,3.979,0,0,1-.024-5.6l1.306-1.306A17.418,17.418,0,0,1,5.8,31.565H4a3.982,3.982,0,0,1-4-3.957v-5.22a3.978,3.978,0,0,1,4-3.953H5.8a17.062,17.062,0,0,1,.961-2.353L5.478,14.8a3.983,3.983,0,0,1,0-5.612L9.184,5.478a4.094,4.094,0,0,1,5.616,0l1.251,1.251a18.5,18.5,0,0,1,2.384-.98V3.992A3.978,3.978,0,0,1,22.388,0h5.22a3.978,3.978,0,0,1,3.953,3.992V5.753a20.483,20.483,0,0,1,2.42.984l1.259-1.259a3.967,3.967,0,0,1,5.592-.02l3.69,3.729a3.972,3.972,0,0,1,.016,5.584l-1.278,1.286a19.92,19.92,0,0,1,.98,2.376h1.8A3.96,3.96,0,0,1,50,22.388v5.22a3.963,3.963,0,0,1-3.957,3.957H44.235a19.133,19.133,0,0,1-.98,2.373l1.263,1.255a3.989,3.989,0,0,1,0,5.62l-3.659,3.7a3.979,3.979,0,0,1-5.62.008l-1.263-1.263a18.944,18.944,0,0,1-2.416.984V46a3.979,3.979,0,0,1-3.953,4M15.78,39.984a1.467,1.467,0,0,1,.725.192,15.506,15.506,0,0,0,3.765,1.537,1.476,1.476,0,0,1,1.106,1.427V46a1.048,1.048,0,0,0,1.012,1.059h5.22A1.023,1.023,0,0,0,28.62,46V43.141a1.476,1.476,0,0,1,1.106-1.427,16.408,16.408,0,0,0,3.827-1.549,1.473,1.473,0,0,1,1.745.251l2.02,2.024a1.054,1.054,0,0,0,1.478-.027l3.635-3.671a1.064,1.064,0,0,0-.016-1.49l-2-1.992a1.475,1.475,0,0,1-.251-1.745,16.061,16.061,0,0,0,1.549-3.788,1.477,1.477,0,0,1,1.427-1.1h2.9a1.018,1.018,0,0,0,1.016-1.016v-5.22a1.013,1.013,0,0,0-1.016-1.012h-2.9a1.477,1.477,0,0,1-1.427-1.1,16.014,16.014,0,0,0-1.545-3.784,1.478,1.478,0,0,1,.247-1.749l2.02-2.02a1.037,1.037,0,0,0,0-1.459l-3.667-3.71a1.044,1.044,0,0,0-1.447,0L35.3,9.58a1.474,1.474,0,0,1-1.745.251,16.114,16.114,0,0,0-3.824-1.549,1.468,1.468,0,0,1-1.11-1.424V3.992a1.021,1.021,0,0,0-1.012-1.051h-5.22a1.046,1.046,0,0,0-1.012,1.051V6.859a1.464,1.464,0,0,1-1.11,1.424A15.3,15.3,0,0,0,16.506,9.82a1.467,1.467,0,0,1-1.765-.239l-2.024-2.02a1.07,1.07,0,0,0-1.455,0L7.557,11.267a1.043,1.043,0,0,0,.024,1.478L9.62,14.784a1.465,1.465,0,0,1,.22,1.8,14.42,14.42,0,0,0-1.522,3.7A1.464,1.464,0,0,1,6.9,21.376H4a1.022,1.022,0,0,0-1.055,1.012v5.22A1.025,1.025,0,0,0,4,28.624H6.9a1.465,1.465,0,0,1,1.42,1.09A14.512,14.512,0,0,0,9.843,33.42a1.471,1.471,0,0,1-.224,1.8L7.557,37.278a1.048,1.048,0,0,0,0,1.459l3.7,3.7a1.032,1.032,0,0,0,1.455,0l2.024-2.024a1.483,1.483,0,0,1,1.039-.427" transform="translate(0)"/><path class="a" d="M14.143,24.564A10.424,10.424,0,1,1,24.566,14.141,10.433,10.433,0,0,1,14.143,24.564m0-17.906a7.482,7.482,0,1,0,7.482,7.482,7.491,7.491,0,0,0-7.482-7.482" transform="translate(10.865 10.859)"/></g></svg>