<svg xmlns="http://www.w3.org/2000/svg" xmlns:xlink="http://www.w3.org/1999/xlink" width="50" height="31.685" viewBox="0 0 50 31.685"><defs><style>.a{fill:#31b5a6;}.b{opacity:0.2;}.c{clip-path:url(#a);}</style><clipPath id="a"><rect class="a" width="50" height="31.685"/></clipPath></defs><g class="b" transform="translate(0 0)"><g class="c" transform="translate(0 0)"><path class="a" d="M39.755,23.917H36.179v-.98h3.576ZM10.4,22.936H6.826v.98H10.4Zm24.878-11.2-.693-.687-2.53,2.53.693.69Zm-11.5-5.165H22.8v3.576h.98Zm-9.256,7-2.531-2.53-.693.7,2.531,2.531ZM28.45,24a5.156,5.156,0,1,1-8.51-3.923L16.96,13.3l2.706-1.178,2.98,6.785a1.6,1.6,0,0,1,.627-.08A5.173,5.173,0,0,1,28.45,24m-2.941,0a2.237,2.237,0,0,0-1.529-2.118,2.048,2.048,0,0,0-.706-.118,2.264,2.264,0,0,0-2,1.294,2.371,2.371,0,0,0-.2.941,2.215,2.215,0,0,0,4.43,0" transform="translate(1.707 1.643)"/><path class="a" d="M24.98,0A25.02,25.02,0,0,0,0,24.979a23.891,23.891,0,0,0,.941,6.708h3.02a22.066,22.066,0,1,1,43.1-6.708,22.234,22.234,0,0,1-1.02,6.708h3.02A23.891,23.891,0,0,0,50,24.979,25.029,25.029,0,0,0,24.98,0m0,5.725A19.263,19.263,0,0,0,5.725,24.979a19.012,19.012,0,0,0,1.216,6.708h3.176A15.387,15.387,0,0,1,8.7,25.568a3,3,0,0,1-.039-.589v-.391a16.28,16.28,0,0,1,4.628-10.94,5.262,5.262,0,0,1,.667-.668A15.87,15.87,0,0,1,24.51,8.706a1.932,1.932,0,0,1,.47-.039,2.269,2.269,0,0,1,.51.039A15.846,15.846,0,0,1,36,12.98a5.588,5.588,0,0,1,.708.668,16.292,16.292,0,0,1,4.628,10.94v.391a2.9,2.9,0,0,1-.04.589,15.345,15.345,0,0,1-1.412,6.119h3.177a19.04,19.04,0,0,0,1.216-6.708A19.3,19.3,0,0,0,24.98,5.725" transform="translate(0 -0.001)"/></g></g></svg>