<svg xmlns="http://www.w3.org/2000/svg" xmlns:xlink="http://www.w3.org/1999/xlink" width="39.42" height="50" viewBox="0 0 39.42 50"><defs><style>.a{fill:#31b5a6;}.b{opacity:0.2;}.c{clip-path:url(#a);}</style><clipPath id="a"><rect class="a" width="39.42" height="50"/></clipPath></defs><g class="b" transform="translate(0 0)"><g class="c" transform="translate(0 0)"><path class="a" d="M37.949,0H1.471A1.471,1.471,0,0,0,0,1.471V48.529A1.471,1.471,0,0,0,1.471,50H23.624a1.478,1.478,0,0,0,1.043-.431L38.992,35.2a1.472,1.472,0,0,0,.427-1.039V1.471A1.471,1.471,0,0,0,37.949,0M24.114,45.957V34.651H35.384Zm-21.173,1.1V2.941H36.478V33.553l-.118.118H23.624a.493.493,0,0,0-.49.49V46.937l-.118.122Z" transform="translate(0 0)"/><path class="a" d="M23.809,17.453H11.546v-.98H23.809ZM5.389,13.606a3.353,3.353,0,1,0,3.353,3.357,3.355,3.355,0,0,0-3.353-3.357m18.42-8.071H11.546v.98H23.809ZM5.389,2.677A3.353,3.353,0,1,0,8.742,6.026,3.353,3.353,0,0,0,5.389,2.677" transform="translate(5.948 7.821)"/></g></g></svg>