<svg xmlns="http://www.w3.org/2000/svg" xmlns:xlink="http://www.w3.org/1999/xlink" width="50" height="43.952" viewBox="0 0 50 43.952"><defs><style>.a{fill:#31b5a6;}.b{opacity:0.2;}.c{clip-path:url(#a);}</style><clipPath id="a"><rect class="a" width="50" height="43.952"/></clipPath></defs><g class="b" transform="translate(0 0)"><g class="c" transform="translate(0 0)"><path class="a" d="M48.53,9.03H29.67L26.361.915A1.467,1.467,0,0,0,25,0H1.47A1.472,1.472,0,0,0,0,1.47V42.483a1.471,1.471,0,0,0,1.47,1.47H48.53A1.471,1.471,0,0,0,50,42.483V10.5A1.471,1.471,0,0,0,48.53,9.03M24.011,2.941,27.3,11.01H2.941V2.941ZM2.941,11.99H47.059V41.011H2.941Z" transform="translate(0 -0.001)"/><path class="a" d="M20.246,31.222a1.461,1.461,0,0,1-1.04-.429l-8.941-8.939,2.079-2.083,7.9,7.9,14.3-14.3,2.079,2.083L21.286,30.793a1.461,1.461,0,0,1-1.04.429" transform="translate(2.566 3.344)"/></g></g></svg>