<svg xmlns="http://www.w3.org/2000/svg" xmlns:xlink="http://www.w3.org/1999/xlink" width="50" height="45.481" viewBox="0 0 50 45.481"><defs><style>.a{fill:#31b5a6;}.b{opacity:0.2;}.c{clip-path:url(#a);}</style><clipPath id="a"><rect class="a" width="50" height="45.481"/></clipPath></defs><g class="b" transform="translate(0 0)"><g class="c" transform="translate(0 0)"><path class="a" d="M32.816,28.1H16.968v-.98H32.816ZM11.4,24.584a3.031,3.031,0,1,0,3.031,3.031A3.031,3.031,0,0,0,11.4,24.584m21.411-7.341H16.968v.98H32.816ZM11.4,14.7a3.031,3.031,0,1,0,3.031,3.031A3.032,3.032,0,0,0,11.4,14.7" transform="translate(2.093 3.676)"/><path class="a" d="M48.53,9.026H29.67L26.361.916A1.467,1.467,0,0,0,25,0H1.47A1.472,1.472,0,0,0,0,1.471V44.01a1.471,1.471,0,0,0,1.47,1.471H48.53A1.471,1.471,0,0,0,50,44.01V10.5a1.471,1.471,0,0,0-1.47-1.471M24.011,2.941l3.29,8.065H2.941V2.941ZM2.941,11.988H47.059V42.54H2.941Z" transform="translate(0 0)"/></g></g></svg>