<svg xmlns="http://www.w3.org/2000/svg" xmlns:xlink="http://www.w3.org/1999/xlink" width="50" height="39.286" viewBox="0 0 50 39.286"><defs><style>.a{fill:#31b5a6;}.b{clip-path:url(#a);}</style><clipPath id="a"><rect class="a" width="50" height="39.286"/></clipPath></defs><g transform="translate(0 0)"><g class="b" transform="translate(0 0)"><path class="a" d="M48.529,39.286H1.471A1.471,1.471,0,0,1,0,37.816V5.247A1.471,1.471,0,0,1,1.471,3.776h9.624V1.471A1.471,1.471,0,0,1,12.565,0H37.435a1.471,1.471,0,0,1,1.471,1.471V3.776h9.624A1.471,1.471,0,0,1,50,5.247V37.816a1.471,1.471,0,0,1-1.471,1.471M2.941,36.345H47.059V6.718H37.435a1.471,1.471,0,0,1-1.471-1.471V2.941H14.035V5.247a1.471,1.471,0,0,1-1.471,1.471H2.941Zm41-25.247H36.627v.98h7.318Z" transform="translate(0 0.002)"/><path class="a" d="M13.949,23.794A10.463,10.463,0,1,1,24.408,13.332,10.475,10.475,0,0,1,13.949,23.794m0-17.984a7.522,7.522,0,1,0,7.518,7.522A7.528,7.528,0,0,0,13.949,5.81" transform="translate(10.185 8.384)"/></g></g></svg>