<svg xmlns="http://www.w3.org/2000/svg" width="22" height="13.94" viewBox="0 0 22 13.94"><defs><style>.a{fill:#969699;}</style></defs><g transform="translate(0 0)"><path class="a" d="M16.665,9.727H15.091V9.3h1.574ZM3.75,9.3H2.176v.431H3.75ZM14.7,4.369l-.305-.3L13.278,5.18l.305.3ZM9.637,2.1H9.206V3.671h.431ZM5.563,5.179,4.45,4.064l-.305.307L5.258,5.486ZM11.69,9.763A2.269,2.269,0,1,1,7.946,8.038L6.635,5.054l1.191-.518L9.138,7.52a.737.737,0,0,1,.274-.033A2.275,2.275,0,0,1,11.69,9.763m-1.294,0a.981.981,0,0,0-.673-.93.857.857,0,0,0-.311-.052.994.994,0,0,0-.88.569,1.058,1.058,0,0,0-.086.412.975.975,0,0,0,1.95,0" transform="translate(1.579 1.522)"/><path class="a" d="M10.991,0A11.008,11.008,0,0,0,0,10.99,10.509,10.509,0,0,0,.414,13.94H1.743A9.709,9.709,0,1,1,20.706,10.99a9.764,9.764,0,0,1-.449,2.951h1.329A10.509,10.509,0,0,0,22,10.99,11.011,11.011,0,0,0,10.991,0m0,2.517A8.476,8.476,0,0,0,2.519,10.99a8.352,8.352,0,0,0,.535,2.951h1.4a6.753,6.753,0,0,1-.621-2.69,1.315,1.315,0,0,1-.017-.261v-.171A7.159,7.159,0,0,1,5.849,6a2.244,2.244,0,0,1,.293-.293,6.97,6.97,0,0,1,4.642-1.881.766.766,0,0,1,.207-.019.9.9,0,0,1,.224.019A6.961,6.961,0,0,1,15.84,5.711,2.377,2.377,0,0,1,16.151,6a7.159,7.159,0,0,1,2.036,4.814v.171a1.315,1.315,0,0,1-.017.261,6.753,6.753,0,0,1-.621,2.69h1.4a8.352,8.352,0,0,0,.535-2.951,8.491,8.491,0,0,0-8.489-8.472" transform="translate(0 0)"/></g></svg>