<svg xmlns="http://www.w3.org/2000/svg" width="20.187" height="22" viewBox="0 0 20.187 22"><defs><style>.a{fill:#969699;}</style></defs><g transform="translate(-1 1)"><path class="a" d="M20.187,12.79l-2.949-1.852v-.006l-.154-.093-.929-.584-3.2,3.034L9.233,12.16l-1.628,1.7-2.3-.66a2.082,2.082,0,0,1-.084-.238,6.078,6.078,0,0,1,0-3.91A6.335,6.335,0,0,1,5.531,8.3,6.083,6.083,0,0,1,8.3,5.539a5.361,5.361,0,0,1,.745-.308,6.1,6.1,0,0,1,3.911,0,6.033,6.033,0,0,1,.745.3,6.15,6.15,0,0,1,2.388,2.113l2.674-1.867.007-.007.746-1.5a.329.329,0,0,0-.054-.369L18.09,2.543a.316.316,0,0,0-.361-.062l-1.5.753A9.329,9.329,0,0,0,12.79,1.806L12.26.216A.324.324,0,0,0,11.96,0H10.033a.333.333,0,0,0-.3.216l-.53,1.6A9.359,9.359,0,0,0,5.762,3.234l-1.5-.753a.316.316,0,0,0-.361.062L2.535,3.9a.329.329,0,0,0-.054.369l.746,1.5A9.14,9.14,0,0,0,1.8,9.211L.215,9.74a.309.309,0,0,0-.215.3v1.921a.324.324,0,0,0,.215.307l1.59.53a9.194,9.194,0,0,0,1.422,3.441l-.746,1.5a.316.316,0,0,0,.054.361L3.9,19.458a.3.3,0,0,0,.361.062l1.5-.753A9.225,9.225,0,0,0,9.2,20.188l.53,1.6a.32.32,0,0,0,.3.215H11.96a.313.313,0,0,0,.3-.215l.53-1.59a9.354,9.354,0,0,0,3.441-1.428l1.5.753a.3.3,0,0,0,.361-.062l1.368-1.36a.316.316,0,0,0,.054-.361l-.753-1.506A9.317,9.317,0,0,0,20.187,12.8Zm-3.418.169a5.731,5.731,0,0,1-.307.745A6.105,6.105,0,0,1,13.7,16.47a5.356,5.356,0,0,1-.745.307,6.081,6.081,0,0,1-3.911,0A5.356,5.356,0,0,1,8.3,16.47a6.12,6.12,0,0,1-2.534-2.343L7.4,14.6l.445.122.315-.33,1.306-1.352,3.264.991.431.13.322-.306,2.773-2.628.792.492a6.118,6.118,0,0,1-.277,1.244" transform="translate(1 -1)"/><path class="a" d="M7.09,9.7H8.25v2.581l-.645.675-.515-.145ZM9.287,8.3h1.16v3.333l-1.16-.352Zm5.561,0v2.3L13.681,11.7V8.3Zm-3.364-.653h1.167V12.3l-1.167-.353Z" transform="translate(1 -1)"/></g></svg>