<svg xmlns="http://www.w3.org/2000/svg" width="22" height="20.012" viewBox="0 0 22 20.012"><defs><style>.a{fill:#969699;}</style></defs><g transform="translate(0 -0.001)"><path class="a" d="M13.424,10.584H6.451v-.431h6.973ZM4,9.036a1.333,1.333,0,1,0,1.334,1.332A1.332,1.332,0,0,0,4,9.036M13.424,5.8H6.451v.431h6.973ZM4,4.686A1.334,1.334,0,1,0,5.337,6.02,1.335,1.335,0,0,0,4,4.686" transform="translate(1.936 3.4)"/><path class="a" d="M21.353,3.972h-8.3L11.6.4A.645.645,0,0,0,11,0H.647A.647.647,0,0,0,0,.647V19.365a.647.647,0,0,0,.647.647H21.353A.647.647,0,0,0,22,19.365V4.619a.647.647,0,0,0-.647-.647M10.565,1.294l1.448,3.549H1.294V1.294ZM1.294,5.275H20.706V18.718H1.294Z" transform="translate(0 0.001)"/></g></svg>